<?xml version="1.0" encoding="UTF-8" standalone="no"?>
<svg
   width="138.9563mm"
   height="75.459229mm"
   viewBox="0 0 138.9563 75.459229"
   version="1.1"
   id="svg8"
   xmlns="http://www.w3.org/2000/svg"
   xmlns:svg="http://www.w3.org/2000/svg"
   xmlns:rdf="http://www.w3.org/1999/02/22-rdf-syntax-ns#"
   xmlns:cc="http://creativecommons.org/ns#"
   xmlns:dc="http://purl.org/dc/elements/1.1/">
  <defs
     id="defs2" />
  <metadata
     id="metadata5">
    <rdf:RDF>
      <cc:Work
         rdf:about="">
        <dc:format>image/svg+xml</dc:format>
        <dc:type
           rdf:resource="http://purl.org/dc/dcmitype/StillImage" />
        <dc:title />
      </cc:Work>
    </rdf:RDF>
  </metadata>
  <g
     id="layer1"
     transform="translate(-3086.6151,-2358.5998)">
    <path
       id="path10775-1-3-61-30-6-3-7-7-9-1-4-6"
       d="m 3225.4391,2403.8215 v -9.9961 l -8.6567,4.9979 v -10.0014 l -8.6603,5.0054 v -10.0017 l -8.6612,-5.0004 -25.9799,-14.9994 2e-4,19.9998 -8.6571,4.9982 8.6563,5.0013 -8.6602,4.9998 -8.6566,-5.001 v 10.0009 l 8.6612,5.0004 -17.3182,9.9987 v 10.0002 l 17.32,-9.9997 v -9.9977 l 2e-4,-9.9998 8.6603,4.9996 v -19.999 l 17.3172,-10.0018 v 10.0018 l 17.3206,9.9945 8.6603,5.0014 z"
       style="fill:#000000;fill-opacity:1;stroke:#000000;stroke-width:0.264583px;stroke-linecap:butt;stroke-linejoin:miter;stroke-opacity:1" />
    <path
       style="fill:#808000;fill-opacity:1;stroke:#000000;stroke-width:0.264583px;stroke-linecap:butt;stroke-linejoin:miter;stroke-opacity:1"
       d="m 3138.8393,2373.8328 10e-5,29.995 -17.3163,-9.9976 v -10.0012 z"
       id="path10700-8-3-8-7-482-8-1-1-20-6-7-4-77" />
    <path
       style="fill:#808000;fill-opacity:1;stroke:#000000;stroke-width:0.264583px;stroke-linecap:butt;stroke-linejoin:miter;stroke-opacity:1"
       d="m 3121.5191,2393.8325 1e-4,19.995 -17.3157,10.0022 v -20.0021 z"
       id="path10703-5-1-4-3-10-0-8-8-9-51-4-4-1" />
    <path
       style="fill:#808000;fill-opacity:1;stroke:#000000;stroke-width:0.264583px;stroke-linecap:butt;stroke-linejoin:miter;stroke-opacity:1"
       d="m 3112.8589,2398.829 v -19.9982 l -25.9795,14.9991 17.3166,10.0023 z"
       id="path10705-3-4-5-2-706-7-7-8-5-63-8-4-61" />
    <path
       style="fill:#808000;fill-opacity:1;stroke:#000000;stroke-width:0.264583px;stroke-linecap:butt;stroke-linejoin:miter;stroke-opacity:1"
       d="m 3121.5236,2413.83 8.6592,-4.9991 17.3206,10.0001 -25.9792,14.9988 z"
       id="path10733-3-5-4-2-79-8-2-7-9-0-66-3-8" />
    <path
       id="path10700-8-3-8-7-482-8-1-1-20-6-4-9"
       d="m 3147.4925,2358.8287 1e-4,29.995 -17.3163,-9.9976 v -10.0012 z"
       style="fill:#ff0000;fill-opacity:1;stroke:#000000;stroke-width:0.264583px;stroke-linecap:butt;stroke-linejoin:miter;stroke-opacity:1" />
    <path
       id="path10703-5-1-4-3-10-0-8-8-9-51-9-2"
       d="m 3130.1723,2378.8284 10e-5,19.995 -17.3157,10.0022 v -20.0021 z"
       style="fill:#ff0000;fill-opacity:1;stroke:#000000;stroke-width:0.264583px;stroke-linecap:butt;stroke-linejoin:miter;stroke-opacity:1" />
    <path
       id="path10705-3-4-5-2-706-7-7-8-5-63-81-96"
       d="m 3121.5121,2383.8249 v -19.9982 l -25.9795,14.9991 17.3166,10.0023 z"
       style="fill:#ff0000;fill-opacity:1;stroke:#000000;stroke-width:0.264583px;stroke-linecap:butt;stroke-linejoin:miter;stroke-opacity:1" />
    <path
       id="path10733-3-5-4-2-79-8-2-7-9-0-1-0"
       d="m 3130.1768,2398.8259 8.6592,-4.9991 17.3206,10.0001 -25.9792,14.9988 z"
       style="fill:#ff0000;fill-opacity:1;stroke:#000000;stroke-width:0.264583px;stroke-linecap:butt;stroke-linejoin:miter;stroke-opacity:1" />
  </g>
</svg>
